<svg width="348" height="84" viewBox="0 0 348 84" fill="none" xmlns="http://www.w3.org/2000/svg">
<path d="M0.67625 69.0811L30.9163 1.88105H43.2043L73.5403 69.0811H60.4843L34.4683 8.50505H39.4603L13.5403 69.0811H0.67625ZM14.5963 53.5291L17.9563 43.7371H54.2443L57.6042 53.5291H14.5963ZM112.637 70.0411C107.389 70.0411 102.557 69.1771 98.141 67.4491C93.725 65.7211 89.885 63.3211 86.621 60.2491C83.357 57.1131 80.829 53.4651 79.037 49.3051C77.245 45.0811 76.349 40.4731 76.349 35.4811C76.349 30.4891 77.245 25.9131 79.037 21.7531C80.829 17.5291 83.357 13.8811 86.621 10.809C89.885 7.67305 93.725 5.24105 98.141 3.51305C102.557 1.78505 107.357 0.921051 112.541 0.921051C117.789 0.921051 122.589 1.78505 126.941 3.51305C131.357 5.24105 135.197 7.64105 138.461 10.7131C141.725 13.7851 144.253 17.4331 146.045 21.6571C147.837 25.8811 148.733 30.4891 148.733 35.4811C148.733 40.4731 147.837 45.0811 146.045 49.3051C144.253 53.5291 141.725 57.1771 138.461 60.2491C135.197 63.3211 131.357 65.7211 126.941 67.4491C122.589 69.1771 117.821 70.0411 112.637 70.0411ZM134.525 83.7691C132.157 83.7691 129.853 83.4811 127.613 82.9051C125.437 82.3931 123.261 81.4971 121.085 80.2171C118.973 79.0011 116.765 77.3691 114.461 75.3211C112.157 73.3371 109.629 70.8731 106.877 67.9291L120.125 64.4731C121.917 66.8411 123.613 68.7291 125.213 70.1371C126.877 71.6091 128.477 72.6651 130.013 73.3051C131.549 73.9451 133.149 74.2651 134.813 74.2651C139.229 74.2651 143.069 72.4731 146.333 68.8891L152.093 75.8011C147.613 81.1131 141.757 83.7691 134.525 83.7691ZM112.541 59.0971C115.933 59.0971 119.069 58.5211 121.949 57.3691C124.829 56.2171 127.325 54.5851 129.437 52.4731C131.549 50.2971 133.181 47.7691 134.333 44.8891C135.549 42.0091 136.157 38.8731 136.157 35.4811C136.157 32.0251 135.549 28.8891 134.333 26.0731C133.181 23.1931 131.549 20.6971 129.437 18.5851C127.325 16.4091 124.829 14.7451 121.949 13.5931C119.069 12.4411 115.933 11.8651 112.541 11.8651C109.149 11.8651 106.013 12.4411 103.133 13.5931C100.253 14.7451 97.757 16.4091 95.645 18.5851C93.533 20.6971 91.869 23.1931 90.653 26.0731C89.501 28.8891 88.925 32.0251 88.925 35.4811C88.925 38.8731 89.501 42.0091 90.653 44.8891C91.869 47.7691 93.533 50.2971 95.645 52.4731C97.757 54.5851 100.253 56.2171 103.133 57.3691C106.013 58.5211 109.149 59.0971 112.541 59.0971ZM190.858 70.0411C181.642 70.0411 174.41 67.4491 169.162 62.2651C163.978 57.0811 161.386 49.5931 161.386 39.8011V1.88105H173.866V39.3211C173.866 46.2331 175.338 51.2571 178.281 54.3931C181.29 57.5291 185.514 59.0971 190.954 59.0971C196.394 59.0971 200.586 57.5291 203.53 54.3931C206.474 51.2571 207.946 46.2331 207.946 39.3211V1.88105H220.234V39.8011C220.234 49.5931 217.61 57.0811 212.362 62.2651C207.178 67.4491 200.01 70.0411 190.858 70.0411ZM226.801 69.0811L257.041 1.88105H269.329L299.665 69.0811H286.609L260.593 8.50505H265.585L239.665 69.0811H226.801ZM240.721 53.5291L244.081 43.7371H280.369L283.729 53.5291H240.721ZM320.451 57.0811V13.8811H330.723V57.0811H320.451ZM303.459 40.2811V30.6811H347.715V40.2811H303.459Z" fill="url(#paint0_linear_35_15)"/>
<defs>
<linearGradient id="paint0_linear_35_15" x1="-20" y1="44.7702" x2="375" y2="44.7702" gradientUnits="userSpaceOnUse">
<stop stop-color="#1B2F4D"/>
<stop offset="1" stop-color="#0F82C0"/>
</linearGradient>
</defs>
</svg>
